<svg width="13" height="13" viewBox="0 0 13 13" fill="none" xmlns="http://www.w3.org/2000/svg">
  <path fill-rule="evenodd" clip-rule="evenodd" d="M0.5 5H2.5C2.63261 5 2.75979 5.05268 2.85355 5.14645C2.94732 5.24021 3 5.36739 3 5.5V7.5C3 7.63261 2.94732 7.75979 2.85355 7.85355C2.75979 7.94732 2.63261 8 2.5 8H0.5C0.367392 8 0.240214 7.94732 0.146446 7.85355C0.052678 7.75979 0 7.63261 0 7.5V5.5C0 5.36739 0.052678 5.24021 0.146446 5.14645C0.240214 5.05268 0.367392 5 0.5 5ZM0.5 10H2.5C2.63261 10 2.75979 10.0527 2.85355 10.1464C2.94732 10.2402 3 10.3674 3 10.5V12.5C3 12.6326 2.94732 12.7598 2.85355 12.8536C2.75979 12.9473 2.63261 13 2.5 13H0.5C0.367392 13 0.240214 12.9473 0.146446 12.8536C0.052678 12.7598 0 12.6326 0 12.5V10.5C0 10.3674 0.052678 10.2402 0.146446 10.1464C0.240214 10.0527 0.367392 10 0.5 10ZM0.5 0H2.5C2.63261 0 2.75979 0.052678 2.85355 0.146446C2.94732 0.240214 3 0.367392 3 0.5V2.5C3 2.63261 2.94732 2.75979 2.85355 2.85355C2.75979 2.94732 2.63261 3 2.5 3H0.5C0.367392 3 0.240214 2.94732 0.146446 2.85355C0.052678 2.75979 0 2.63261 0 2.5V0.5C0 0.367392 0.052678 0.240214 0.146446 0.146446C0.240214 0.052678 0.367392 0 0.5 0ZM5.5 5H12.5C12.6326 5 12.7598 5.05268 12.8536 5.14645C12.9473 5.24021 13 5.36739 13 5.5V7.5C13 7.63261 12.9473 7.75979 12.8536 7.85355C12.7598 7.94732 12.6326 8 12.5 8H5.5C5.36739 8 5.24021 7.94732 5.14645 7.85355C5.05268 7.75979 5 7.63261 5 7.5V5.5C5 5.36739 5.05268 5.24021 5.14645 5.14645C5.24021 5.05268 5.36739 5 5.5 5ZM5.5 10H12.5C12.6326 10 12.7598 10.0527 12.8536 10.1464C12.9473 10.2402 13 10.3674 13 10.5V12.5C13 12.6326 12.9473 12.7598 12.8536 12.8536C12.7598 12.9473 12.6326 13 12.5 13H5.5C5.36739 13 5.24021 12.9473 5.14645 12.8536C5.05268 12.7598 5 12.6326 5 12.5V10.5C5 10.3674 5.05268 10.2402 5.14645 10.1464C5.24021 10.0527 5.36739 10 5.5 10ZM5.5 0H12.5C12.6326 0 12.7598 0.052678 12.8536 0.146446C12.9473 0.240214 13 0.367392 13 0.5V2.5C13 2.63261 12.9473 2.75979 12.8536 2.85355C12.7598 2.94732 12.6326 3 12.5 3H5.5C5.36739 3 5.24021 2.94732 5.14645 2.85355C5.05268 2.75979 5 2.63261 5 2.5V0.5C5 0.367392 5.05268 0.240214 5.14645 0.146446C5.24021 0.052678 5.36739 0 5.5 0Z" fill="#222222" />
</svg>