<svg width="13" height="13" viewBox="0 0 13 13" fill="none" xmlns="http://www.w3.org/2000/svg">
  <path fill-rule="evenodd" clip-rule="evenodd" d="M0.75 5H2.25C2.44891 5 2.63968 5.07902 2.78033 5.21967C2.92098 5.36032 3 5.55109 3 5.75V7.25C3 7.44891 2.92098 7.63968 2.78033 7.78033C2.63968 7.92098 2.44891 8 2.25 8H0.75C0.551088 8 0.360322 7.92098 0.21967 7.78033C0.0790176 7.63968 0 7.44891 0 7.25L0 5.75C0 5.55109 0.0790176 5.36032 0.21967 5.21967C0.360322 5.07902 0.551088 5 0.75 5ZM0.75 10H2.25C2.44891 10 2.63968 10.079 2.78033 10.2197C2.92098 10.3603 3 10.5511 3 10.75V12.25C3 12.4489 2.92098 12.6397 2.78033 12.7803C2.63968 12.921 2.44891 13 2.25 13H0.75C0.551088 13 0.360322 12.921 0.21967 12.7803C0.0790176 12.6397 0 12.4489 0 12.25L0 10.75C0 10.5511 0.0790176 10.3603 0.21967 10.2197C0.360322 10.079 0.551088 10 0.75 10ZM0.75 0H2.25C2.44891 0 2.63968 0.0790171 2.78033 0.219669C2.92098 0.360322 3 0.551088 3 0.75V2.25C3 2.44891 2.92098 2.63968 2.78033 2.78033C2.63968 2.92098 2.44891 3 2.25 3H0.75C0.551088 3 0.360322 2.92098 0.21967 2.78033C0.0790176 2.63968 0 2.44891 0 2.25L0 0.75C0 0.551088 0.0790176 0.360322 0.21967 0.219669C0.360322 0.0790171 0.551088 0 0.75 0ZM5.75 5H7.25C7.44891 5 7.63968 5.07902 7.78033 5.21967C7.92098 5.36032 8 5.55109 8 5.75V7.25C8 7.44891 7.92098 7.63968 7.78033 7.78033C7.63968 7.92098 7.44891 8 7.25 8H5.75C5.55109 8 5.36032 7.92098 5.21967 7.78033C5.07902 7.63968 5 7.44891 5 7.25V5.75C5 5.55109 5.07902 5.36032 5.21967 5.21967C5.36032 5.07902 5.55109 5 5.75 5ZM5.75 10H7.25C7.44891 10 7.63968 10.079 7.78033 10.2197C7.92098 10.3603 8 10.5511 8 10.75V12.25C8 12.4489 7.92098 12.6397 7.78033 12.7803C7.63968 12.921 7.44891 13 7.25 13H5.75C5.55109 13 5.36032 12.921 5.21967 12.7803C5.07902 12.6397 5 12.4489 5 12.25V10.75C5 10.5511 5.07902 10.3603 5.21967 10.2197C5.36032 10.079 5.55109 10 5.75 10ZM5.75 0H7.25C7.44891 0 7.63968 0.0790171 7.78033 0.219669C7.92098 0.360322 8 0.551088 8 0.75V2.25C8 2.44891 7.92098 2.63968 7.78033 2.78033C7.63968 2.92098 7.44891 3 7.25 3H5.75C5.55109 3 5.36032 2.92098 5.21967 2.78033C5.07902 2.63968 5 2.44891 5 2.25V0.75C5 0.551088 5.07902 0.360322 5.21967 0.219669C5.36032 0.0790171 5.55109 0 5.75 0ZM10.75 5H12.25C12.4489 5 12.6397 5.07902 12.7803 5.21967C12.921 5.36032 13 5.55109 13 5.75V7.25C13 7.44891 12.921 7.63968 12.7803 7.78033C12.6397 7.92098 12.4489 8 12.25 8H10.75C10.5511 8 10.3603 7.92098 10.2197 7.78033C10.079 7.63968 10 7.44891 10 7.25V5.75C10 5.55109 10.079 5.36032 10.2197 5.21967C10.3603 5.07902 10.5511 5 10.75 5ZM10.75 10H12.25C12.4489 10 12.6397 10.079 12.7803 10.2197C12.921 10.3603 13 10.5511 13 10.75V12.25C13 12.4489 12.921 12.6397 12.7803 12.7803C12.6397 12.921 12.4489 13 12.25 13H10.75C10.5511 13 10.3603 12.921 10.2197 12.7803C10.079 12.6397 10 12.4489 10 12.25V10.75C10 10.5511 10.079 10.3603 10.2197 10.2197C10.3603 10.079 10.5511 10 10.75 10ZM10.75 0H12.25C12.4489 0 12.6397 0.0790171 12.7803 0.219669C12.921 0.360322 13 0.551088 13 0.75V2.25C13 2.44891 12.921 2.63968 12.7803 2.78033C12.6397 2.92098 12.4489 3 12.25 3H10.75C10.5511 3 10.3603 2.92098 10.2197 2.78033C10.079 2.63968 10 2.44891 10 2.25V0.75C10 0.551088 10.079 0.360322 10.2197 0.219669C10.3603 0.0790171 10.5511 0 10.75 0Z" fill="white" />
</svg>